# xmcd
#
# Track frame offsets: 
#        150
#        13843
#        30518
#        45523
#        63550
#        79501
#        93862
#        111740
#        127847
#        141169
#        160017
#        177282
#
# Disc length: 2538 seconds
#
# Revision: 0
# Processed by: cddbd v1.5.2PL0 Copyright (c) Steve Scherf et al.
# Submitted via: ExactAudioCopy v0.99pb4
#
DISCID=9409e80c
DTITLE=Vuokko Hovatta - Lempiel‰imi‰
DYEAR=2008
DGENRE=Pop
TTITLE0=Virginia
TTITLE1=Syleily
TTITLE2=Mustaa j‰‰t‰
TTITLE3=Juhlat
TTITLE4=Marjalude
TTITLE5=Odota kun rutistan sua
TTITLE6=Lumottu veli
TTITLE7=Helise taivas
TTITLE8=Lempiel‰imi‰
TTITLE9=Sairas veri
TTITLE10=Hiljaiset vuodet
TTITLE11=Tuuli
EXTD=
EXTT0=
EXTT1=
EXTT2=
EXTT3=
EXTT4=
EXTT5=
EXTT6=
EXTT7=
EXTT8=
EXTT9=
EXTT10=
EXTT11=
PLAYORDER=
